<?xml version="1.0" standalone="yes"?>

<svg version="1.1" viewBox="0.0 0.0 960.0 720.0" fill="none" stroke="none" stroke-linecap="square" stroke-miterlimit="10" xmlns="http://www.w3.org/2000/svg" xmlns:xlink="http://www.w3.org/1999/xlink"><clipPath id="p.0"><path d="m0 0l960.0 0l0 720.0l-960.0 0l0 -720.0z" clip-rule="nonzero"></path></clipPath><g clip-path="url(#p.0)"><path fill="#000000" fill-opacity="0.0" d="m0 0l960.0 0l0 720.0l-960.0 0z" fill-rule="nonzero"></path><path fill="#000000" fill-opacity="0.0" d="m429.97638 155.12862c0 87.38054 -20.233612 173.97902 -20.233612 261.35956" fill-rule="evenodd"></path><path stroke="#000000" stroke-width="24.0" stroke-linejoin="round" stroke-linecap="butt" d="m429.97638 155.12862c0 87.38054 -20.233612 173.97902 -20.233612 261.35956" fill-rule="evenodd"></path><path fill="#000000" fill-opacity="0.0" d="m431.6632 177.04987c-27.032562 27.030716 -56.91104 52.80403 -75.87927 85.99475c-3.793396 6.637726 14.609772 4.511322 21.921265 6.7454224c20.396973 6.232483 20.27713 6.6148376 40.467194 13.48819c25.238892 8.592102 50.58609 16.862885 75.87924 25.293945" fill-rule="evenodd"></path><path stroke="#000000" stroke-width="24.0" stroke-linejoin="round" stroke-linecap="butt" d="m431.6632 177.04987c-27.032562 27.030716 -56.91104 52.80403 -75.87927 85.99475c-3.793396 6.637726 14.609772 4.511322 21.921265 6.7454224c20.396973 6.232483 20.27713 6.6148376 40.467194 13.48819c25.238892 8.592102 50.58609 16.862885 75.87924 25.293945" fill-rule="evenodd"></path><path fill="#000000" fill-opacity="0.0" d="m432.41327 177.04987c0 23.606308 0 47.2126 0 70.81889c0 7.8896637 -6.2046204 23.608932 1.6850281 23.608932c28.972626 0 55.197845 -17.642029 82.624664 -26.979004c19.8656 -6.7628784 41.556458 -10.278687 59.015747 -21.921265" fill-rule="evenodd"></path><path stroke="#000000" stroke-width="24.0" stroke-linejoin="round" stroke-linecap="butt" d="m432.41327 177.04987c0 23.606308 0 47.2126 0 70.81889c0 7.8896637 -6.2046204 23.608932 1.6850281 23.608932c28.972626 0 55.197845 -17.642029 82.624664 -26.979004c19.8656 -6.7628784 41.556458 -10.278687 59.015747 -21.921265" fill-rule="evenodd"></path><path fill="#000000" fill-opacity="0.0" d="m411.42783 413.1146c15.737518 0 31.728943 -2.8153992 47.212585 0c20.550201 3.7366638 38.64868 15.950317 57.33072 25.291351c6.074524 3.037262 18.548584 1.6389465 18.548584 8.43045c0 21.15802 -11.200562 40.862335 -18.548584 60.7034c-11.69397 31.575928 -18.691711 64.779236 -25.291351 97.79791" fill-rule="evenodd"></path><path stroke="#000000" stroke-width="24.0" stroke-linejoin="round" stroke-linecap="butt" d="m411.42783 413.1146c15.737518 0 31.728943 -2.8153992 47.212585 0c20.550201 3.7366638 38.64868 15.950317 57.33072 25.291351c6.074524 3.037262 18.548584 1.6389465 18.548584 8.43045c0 21.15802 -11.200562 40.862335 -18.548584 60.7034c-11.69397 31.575928 -18.691711 64.779236 -25.291351 97.79791" fill-rule="evenodd"></path><path fill="#000000" fill-opacity="0.0" d="m494.0525 595.2231c22.39856 0 45.437927 7.813965 64.07611 20.236206" fill-rule="evenodd"></path><path stroke="#000000" stroke-width="24.0" stroke-linejoin="round" stroke-linecap="butt" d="m494.0525 595.2231c22.39856 0 45.437927 7.813965 64.07611 20.236206" fill-rule="evenodd"></path><path fill="#000000" fill-opacity="0.0" d="m409.74277 411.70865c0 35.48166 -4.219116 70.839386 -6.745392 106.23099c-0.6015625 8.427673 6.600006 23.634338 -1.6850281 25.29132c-37.84149 7.5682983 -76.842804 -11.740662 -112.97638 -25.29132c-11.064056 -4.14917 -21.972778 -8.98349 -32.036743 -15.175842c-3.2113953 -1.9759827 -6.9802856 -7.1485596 -10.118118 -5.05777c-12.550354 8.362579 -12.909897 27.2836 -20.233597 40.467194" fill-rule="evenodd"></path><path stroke="#000000" stroke-width="24.0" stroke-linejoin="round" stroke-linecap="butt" d="m409.74277 411.70865c0 35.48166 -4.219116 70.839386 -6.745392 106.23099c-0.6015625 8.427673 6.600006 23.634338 -1.6850281 25.29132c-37.84149 7.5682983 -76.842804 -11.740662 -112.97638 -25.29132c-11.064056 -4.14917 -21.972778 -8.98349 -32.036743 -15.175842c-3.2113953 -1.9759827 -6.9802856 -7.1485596 -10.118118 -5.05777c-12.550354 8.362579 -12.909897 27.2836 -20.233597 40.467194" fill-rule="evenodd"></path><path fill="#0000ff" d="m389.50656 89.36483l0 0c0 -36.32033 18.874542 -65.76378 42.15747 -65.76378l0 0c11.180878 0 21.903778 6.928665 29.809845 19.261766c7.906067 12.333099 12.347656 29.060371 12.347656 46.502014l0 0c0 36.320335 -18.874573 65.76379 -42.1575 65.76379l0 0c-23.282928 0 -42.15747 -29.44345 -42.15747 -65.76379z" fill-rule="nonzero"></path><path stroke="#000000" stroke-width="24.0" stroke-linejoin="round" stroke-linecap="butt" d="m389.50656 89.36483l0 0c0 -36.32033 18.874542 -65.76378 42.15747 -65.76378l0 0c11.180878 0 21.903778 6.928665 29.809845 19.261766c7.906067 12.333099 12.347656 29.060371 12.347656 46.502014l0 0c0 36.320335 -18.874573 65.76379 -42.1575 65.76379l0 0c-23.282928 0 -42.15747 -29.44345 -42.15747 -65.76379z" fill-rule="nonzero"></path></g></svg>

